
        <svg xmlns="http://www.w3.org/2000/svg" xmlns:xlink="http://www.w3.org/1999/xlink" version="1.1" width="3168.5393258426966" 
        height="1853.932584269663" viewBox="0 0 3168.5393258426966 1853.932584269663">
			<rect fill="#00043c" width="3168.5393258426966" height="1853.932584269663"/>
			<g transform="scale(8.426966292134832) translate(10, 10)">
				<defs id="SvgjsDefs1286"></defs><g id="SvgjsG1287" featureKey="symbolFeature-0" transform="matrix(1.7915879347750017,0,0,1.7915879347750017,-19.056616978095036,31.3322835747778)" fill="#ffa3ac"><g xmlns="http://www.w3.org/2000/svg"><path style="" d="M 27.449219 59.050781 L 10.636719 38.464844 L 27.441406 17.679688 L 32.019531 21.375 L 18.21875 38.445312 L 32.007812 55.328125 Z M 27.449219 59.050781 " stroke="none" fill-rule="nonzero" fill="#ffa3ac" fill-opacity="1"></path><path style="" d="M 49.648438 59.050781 L 45.074219 55.351562 L 58.871094 38.28125 L 45.082031 21.398438 L 49.640625 17.675781 L 66.453125 38.261719 Z M 49.648438 59.050781 " stroke="none" fill-rule="nonzero" fill="#ffa3ac" fill-opacity="1"></path></g></g><g id="SvgjsG1288" featureKey="textGroupContainer" transform="matrix(1,0,0,1,355,0)" fill="#ffa3ac"><rect xmlns="http://www.w3.org/2000/svg" y="0" height="1" width="1" opacity="0"></rect><rect xmlns="http://www.w3.org/2000/svg" y="0" x="-235" width="3" height="200"></rect></g><g id="SvgjsG1289" featureKey="vMvB0T-0" transform="matrix(7.204610891606464,0,0,7.204610891606464,130.07492870631813,5.33142415248895)" fill="#ffa3ac"><path d="M1.1 19.96 l1.06 -13.6 q0.88 -0.16 2.08 -0.16 t2.1 0.16 l1.18 4.9 q0.7 3.32 0.74 3.62 l0.14 0 q0.08 -0.5 0.74 -3.62 l1.2 -4.9 q0.88 -0.16 2.08 -0.16 t2.1 0.16 l1.06 13.6 q-0.62 0.16 -1.53 0.16 t-1.49 -0.1 l-0.32 -5.56 q-0.14 -3.32 -0.16 -4.62 l-0.12 0 l-1.98 8.14 q-0.72 0.12 -1.65 0.12 t-1.65 -0.12 l-1.96 -8.14 l-0.14 0 q0 1.78 -0.16 4.62 l-0.3 5.56 q-0.58 0.1 -1.49 0.1 t-1.53 -0.16 z M25.68 11.64 l-0.02 -1.48 l0 -3.82 q0.62 -0.12 1.61 -0.12 t1.59 0.12 l0 13.66 q-0.64 0.12 -1.6 0.12 t-1.6 -0.12 l0 -4.24 l0.02 -1.48 l-1 0.02 l-2.32 0 l-1 -0.02 l0.02 1.48 l0 4.24 q-0.62 0.12 -1.6 0.12 t-1.6 -0.12 l0 -13.66 q0.62 -0.12 1.6 -0.12 t1.6 0.12 l0 3.82 l-0.02 1.48 l1 -0.02 l2.32 0 z"></path></g>
			</g>
		</svg>
	